HIERARCHY
ROOT newVegas:Hips
{
	OFFSET 0.000000 96.479958 0.000000
	CHANNELS 6 Xposition Yposition Zposition Xrotation Yrotation Zrotation
	JOINT newVegas:Pelvis
	{
		OFFSET 0.000000 0.000000 0.000000
		CHANNELS 3 Xrotation Yrotation Zrotation
		JOINT newVegas:LeftUpLeg
		{
			OFFSET 18.735201 -5.666702 -4.541200
			CHANNELS 3 Xrotation Yrotation Zrotation
			JOINT newVegas:LeftLeg
			{
				OFFSET -0.021200 -31.938179 0.493100
				CHANNELS 3 Xrotation Yrotation Zrotation
				JOINT newVegas:LeftFoot
				{
					OFFSET 0.021200 -31.938179 -4.336299
					CHANNELS 3 Xrotation Yrotation Zrotation
					JOINT newVegas:LeftToeBase
					{
						OFFSET 0.943001 -26.722000 15.023500
						CHANNELS 3 Xrotation Yrotation Zrotation
						End Site
						{
							OFFSET 0.000000 30.670183 0.000000
						}
					}
				}
				JOINT newVegas:Left_PantLeg
				{
					OFFSET 0.663870 -9.044666 -1.108900
					CHANNELS 3 Xrotation Yrotation Zrotation
					End Site
					{
						OFFSET 1.415995 20.635357 0.000000
					}
				}
			}
		}
		JOINT newVegas:RightUpLeg
		{
			OFFSET -18.735201 -5.666702 -4.541200
			CHANNELS 3 Xrotation Yrotation Zrotation
			JOINT newVegas:RightLeg
			{
				OFFSET 0.018946 -31.938133 0.493100
				CHANNELS 3 Xrotation Yrotation Zrotation
				JOINT newVegas:RightFoot
				{
					OFFSET -0.018946 -31.938126 -4.336299
					CHANNELS 3 Xrotation Yrotation Zrotation
					JOINT newVegas:RightToeBase
					{
						OFFSET -0.943001 -26.722004 15.023500
						CHANNELS 3 Xrotation Yrotation Zrotation
						End Site
						{
							OFFSET 0.000000 30.670187 0.000000
						}
					}
				}
				JOINT newVegas:Right_PantLeg
				{
					OFFSET -0.661674 -9.044716 -1.108900
					CHANNELS 3 Xrotation Yrotation Zrotation
					End Site
					{
						OFFSET -1.415958 20.635269 0.000000
					}
				}
			}
		}
	}
	JOINT newVegas:Spine
	{
		OFFSET 0.000000 10.199997 -0.299500
		CHANNELS 3 Xrotation Yrotation Zrotation
		JOINT newVegas:Spine1
		{
			OFFSET 0.000000 11.900002 -1.516600
			CHANNELS 3 Xrotation Yrotation Zrotation
			JOINT newVegas:Spine2
			{
				OFFSET 0.000000 13.600006 -2.842500
				CHANNELS 3 Xrotation Yrotation Zrotation
				JOINT newVegas:Neck
				{
					OFFSET 0.000000 9.624100 -2.890100
					CHANNELS 3 Xrotation Yrotation Zrotation
					JOINT newVegas:Head
					{
						OFFSET 0.000000 14.068802 -1.351900
						CHANNELS 3 Xrotation Yrotation Zrotation
						JOINT newVegas:Hair_Back
						{
							OFFSET 0.000000 3.231903 -17.524799
							CHANNELS 3 Xrotation Yrotation Zrotation
							End Site
							{
								OFFSET 0.000000 19.849884 0.000000
							}
						}
						JOINT newVegas:Hair_Front
						{
							OFFSET 0.000000 31.260406 4.573800
							CHANNELS 3 Xrotation Yrotation Zrotation
							JOINT newVegas:Hair_Front1
							{
								OFFSET 0.000000 2.284103 11.993300
								CHANNELS 3 Xrotation Yrotation Zrotation
								JOINT newVegas:Hair_Front2
								{
									OFFSET 0.000000 2.284103 11.993300
									CHANNELS 3 Xrotation Yrotation Zrotation
									End Site
									{
										OFFSET 0.000000 12.208862 0.000000
									}
								}
							}
						}
						JOINT newVegas:Jowel
						{
							OFFSET 0.000000 -7.458206 6.864100
							CHANNELS 3 Xrotation Yrotation Zrotation
							End Site
							{
								OFFSET 0.000000 19.849884 0.000000
							}
						}
					}
				}
				JOINT newVegas:LeftShoulder
				{
					OFFSET 15.263000 10.923401 -0.547700
					CHANNELS 3 Xrotation Yrotation Zrotation
					JOINT newVegas:LeftArm
					{
						OFFSET 25.438599 -2.830597 -13.032500
						CHANNELS 3 Xrotation Yrotation Zrotation
						JOINT newVegas:LeftForeArm
						{
							OFFSET 29.960503 0.000000 0.000000
							CHANNELS 3 Xrotation Yrotation Zrotation
							JOINT newVegas:LeftHand
							{
								OFFSET 27.849251 0.000000 0.000000
								CHANNELS 3 Xrotation Yrotation Zrotation
								JOINT newVegas:LeftHandThumb1
								{
									OFFSET 4.487587 -3.305161 6.305391
									CHANNELS 3 Xrotation Yrotation Zrotation
									JOINT newVegas:LeftHandThumb2
									{
										OFFSET 5.480453 -3.164139 3.164143
										CHANNELS 3 Xrotation Yrotation Zrotation
										JOINT newVegas:LeftHandThumb3
										{
											OFFSET 5.159721 -2.978973 2.978967
											CHANNELS 3 Xrotation Yrotation Zrotation
											End Site
											{
												OFFSET 2.494507 5.926697 1.738678
											}
										}
									}
								}
								JOINT newVegas:LeftHandIndex1
								{
									OFFSET 18.578728 -0.527832 5.208049
									CHANNELS 3 Xrotation Yrotation Zrotation
									JOINT newVegas:LeftHandIndex2
									{
										OFFSET 3.192009 0.000000 0.000000
										CHANNELS 3 Xrotation Yrotation Zrotation
										JOINT newVegas:LeftHandIndex3
										{
											OFFSET 3.835129 0.000000 0.000000
											CHANNELS 3 Xrotation Yrotation Zrotation
											End Site
											{
												OFFSET -0.034599 3.816971 0.371180
											}
										}
									}
								}
								JOINT newVegas:LeftHandMiddle1
								{
									OFFSET 18.476105 0.000000 0.000000
									CHANNELS 3 Xrotation Yrotation Zrotation
									JOINT newVegas:LeftHandMiddle2
									{
										OFFSET 3.324875 0.000000 0.000000
										CHANNELS 3 Xrotation Yrotation Zrotation
										JOINT newVegas:LeftHandMiddle3
										{
											OFFSET 4.596550 0.000000 0.000000
											CHANNELS 3 Xrotation Yrotation Zrotation
											End Site
											{
												OFFSET 0.057701 4.578827 0.399218
											}
										}
									}
								}
								JOINT newVegas:LeftHandRing1
								{
									OFFSET 17.732719 0.121887 -4.201567
									CHANNELS 3 Xrotation Yrotation Zrotation
									JOINT newVegas:LeftHandRing2
									{
										OFFSET 2.733170 0.000000 0.000000
										CHANNELS 3 Xrotation Yrotation Zrotation
										JOINT newVegas:LeftHandRing3
										{
											OFFSET 3.178268 0.000000 0.000000
											CHANNELS 3 Xrotation Yrotation Zrotation
											End Site
											{
												OFFSET 0.119102 3.170624 0.185394
											}
										}
									}
								}
								JOINT newVegas:LeftHandPinky1
								{
									OFFSET 15.989624 -0.606689 -7.535461
									CHANNELS 3 Xrotation Yrotation Zrotation
									JOINT newVegas:LeftHandPinky2
									{
										OFFSET 2.538986 0.000000 0.000000
										CHANNELS 3 Xrotation Yrotation Zrotation
										JOINT newVegas:LeftHandPinky3
										{
											OFFSET 2.593102 0.000000 0.000000
											CHANNELS 3 Xrotation Yrotation Zrotation
											End Site
											{
												OFFSET -0.150902 2.584198 0.152708
											}
										}
									}
								}
							}
							JOINT newVegas:Left_Sleeve
							{
								OFFSET 0.267448 -0.649796 0.577675
								CHANNELS 3 Xrotation Yrotation Zrotation
								End Site
								{
									OFFSET 0.000000 15.991241 0.000000
								}
							}
							JOINT newVegas:Left_CapeC
							{
								OFFSET 15.715958 -8.608795 -6.935905
								CHANNELS 3 Xrotation Yrotation Zrotation
								JOINT newVegas:Left_CapeC1
								{
									OFFSET 0.000000 -8.688499 0.000000
									CHANNELS 3 Xrotation Yrotation Zrotation
									End Site
									{
										OFFSET 0.000000 8.688499 0.000000
									}
								}
							}
						}
						JOINT newVegas:Left_CapeB
						{
							OFFSET 26.118385 -8.608795 -7.079235
							CHANNELS 3 Xrotation Yrotation Zrotation
							JOINT newVegas:Left_CapeB1
							{
								OFFSET 0.000000 -8.688499 0.000000
								CHANNELS 3 Xrotation Yrotation Zrotation
								End Site
								{
									OFFSET 0.000000 8.688499 0.000000
								}
							}
						}
						JOINT newVegas:Left_CapeA
						{
							OFFSET 5.115639 -8.608795 -10.395809
							CHANNELS 3 Xrotation Yrotation Zrotation
							JOINT newVegas:Left_CapeA1
							{
								OFFSET 0.000000 -8.688499 0.000000
								CHANNELS 3 Xrotation Yrotation Zrotation
								End Site
								{
									OFFSET 0.000000 8.688499 0.000000
								}
							}
						}
					}
				}
				JOINT newVegas:RightShoulder
				{
					OFFSET -15.263000 10.923401 -0.547700
					CHANNELS 3 Xrotation Yrotation Zrotation
					JOINT newVegas:RightArm
					{
						OFFSET -25.438599 -2.830597 -13.032500
						CHANNELS 3 Xrotation Yrotation Zrotation
						JOINT newVegas:RightForeArm
						{
							OFFSET -29.960503 0.000000 0.000000
							CHANNELS 3 Xrotation Yrotation Zrotation
							JOINT newVegas:RightHand
							{
								OFFSET -27.849251 0.000000 0.000000
								CHANNELS 3 Xrotation Yrotation Zrotation
								JOINT newVegas:RightHandThumb1
								{
									OFFSET -4.487587 -3.305161 6.305391
									CHANNELS 3 Xrotation Yrotation Zrotation
									JOINT newVegas:RightHandThumb2
									{
										OFFSET -5.480453 -3.164139 3.164143
										CHANNELS 3 Xrotation Yrotation Zrotation
										JOINT newVegas:RightHandThumb3
										{
											OFFSET -5.159721 -2.978973 2.978967
											CHANNELS 3 Xrotation Yrotation Zrotation
											End Site
											{
												OFFSET -2.494507 5.926697 1.738678
											}
										}
									}
								}
								JOINT newVegas:RightHandIndex1
								{
									OFFSET -18.578728 -0.527832 5.208049
									CHANNELS 3 Xrotation Yrotation Zrotation
									JOINT newVegas:RightHandIndex2
									{
										OFFSET -3.192009 0.000000 0.000000
										CHANNELS 3 Xrotation Yrotation Zrotation
										JOINT newVegas:RightHandIndex3
										{
											OFFSET -3.835129 0.000000 0.000000
											CHANNELS 3 Xrotation Yrotation Zrotation
											End Site
											{
												OFFSET 0.034599 3.816971 0.371180
											}
										}
									}
								}
								JOINT newVegas:RightHandMiddle1
								{
									OFFSET -18.476105 0.000000 0.000000
									CHANNELS 3 Xrotation Yrotation Zrotation
									JOINT newVegas:RightHandMiddle2
									{
										OFFSET -3.324875 0.000000 0.000000
										CHANNELS 3 Xrotation Yrotation Zrotation
										JOINT newVegas:RightHandMiddle3
										{
											OFFSET -4.596550 0.000000 0.000000
											CHANNELS 3 Xrotation Yrotation Zrotation
											End Site
											{
												OFFSET -0.057701 4.578827 0.399218
											}
										}
									}
								}
								JOINT newVegas:RightHandRing1
								{
									OFFSET -17.732719 0.121887 -4.201567
									CHANNELS 3 Xrotation Yrotation Zrotation
									JOINT newVegas:RightHandRing2
									{
										OFFSET -2.733170 0.000000 0.000000
										CHANNELS 3 Xrotation Yrotation Zrotation
										JOINT newVegas:RightHandRing3
										{
											OFFSET -3.178268 0.000000 0.000000
											CHANNELS 3 Xrotation Yrotation Zrotation
											End Site
											{
												OFFSET -0.119102 3.170624 0.185394
											}
										}
									}
								}
								JOINT newVegas:RightHandPinky1
								{
									OFFSET -15.989624 -0.606689 -7.535461
									CHANNELS 3 Xrotation Yrotation Zrotation
									JOINT newVegas:RightHandPinky2
									{
										OFFSET -2.538986 0.000000 0.000000
										CHANNELS 3 Xrotation Yrotation Zrotation
										JOINT newVegas:RightHandPinky3
										{
											OFFSET -2.593102 0.000000 0.000000
											CHANNELS 3 Xrotation Yrotation Zrotation
											End Site
											{
												OFFSET 0.150902 2.584198 0.152708
											}
										}
									}
								}
							}
							JOINT newVegas:Right_CapeC
							{
								OFFSET -15.715958 -8.608795 -6.935905
								CHANNELS 3 Xrotation Yrotation Zrotation
								JOINT newVegas:Right_CapeC1
								{
									OFFSET 0.000000 -8.688499 0.000000
									CHANNELS 3 Xrotation Yrotation Zrotation
									End Site
									{
										OFFSET 0.000000 8.688499 0.000000
									}
								}
							}
							JOINT newVegas:Right_Sleeve
							{
								OFFSET -0.267448 -0.649994 0.577675
								CHANNELS 3 Xrotation Yrotation Zrotation
								End Site
								{
									OFFSET 0.000000 15.991302 0.000000
								}
							}
						}
						JOINT newVegas:Right_CapeA
						{
							OFFSET -5.115540 -8.608795 -10.395824
							CHANNELS 3 Xrotation Yrotation Zrotation
							JOINT newVegas:Right_CapeA1
							{
								OFFSET 0.000000 -8.688499 0.000000
								CHANNELS 3 Xrotation Yrotation Zrotation
								End Site
								{
									OFFSET 0.000000 8.688499 0.000000
								}
							}
						}
						JOINT newVegas:Right_CapeB
						{
							OFFSET -26.118187 -8.608795 -7.079266
							CHANNELS 3 Xrotation Yrotation Zrotation
							JOINT newVegas:Right_CapeB1
							{
								OFFSET 0.000000 -8.688499 0.000000
								CHANNELS 3 Xrotation Yrotation Zrotation
								End Site
								{
									OFFSET 0.000000 8.688499 0.000000
								}
							}
						}
					}
				}
				JOINT newVegas:Left_Collar
				{
					OFFSET 18.625099 8.655502 8.828100
					CHANNELS 3 Xrotation Yrotation Zrotation
					JOINT newVegas:Left_Collar1
					{
						OFFSET 14.783401 10.540405 -1.259500
						CHANNELS 3 Xrotation Yrotation Zrotation
						End Site
						{
							OFFSET 0.000000 18.199875 0.000000
						}
					}
				}
				JOINT newVegas:Collar_Back
				{
					OFFSET 0.000000 15.630707 -20.132601
					CHANNELS 3 Xrotation Yrotation Zrotation
					End Site
					{
						OFFSET 0.000000 22.523010 0.000000
					}
				}
				JOINT newVegas:Left_Peck
				{
					OFFSET 17.239599 -5.132599 25.482599
					CHANNELS 3 Xrotation Yrotation Zrotation
					End Site
					{
						OFFSET 0.000000 22.523010 0.000000
					}
				}
				JOINT newVegas:Right_Peck
				{
					OFFSET -17.239599 -5.132202 25.482599
					CHANNELS 3 Xrotation Yrotation Zrotation
					End Site
					{
						OFFSET 0.000000 22.523010 0.000000
					}
				}
				JOINT newVegas:Right_Collar
				{
					OFFSET -18.625099 8.655792 8.828100
					CHANNELS 3 Xrotation Yrotation Zrotation
					JOINT newVegas:Right_Collar1
					{
						OFFSET -14.783401 10.539993 -1.259500
						CHANNELS 3 Xrotation Yrotation Zrotation
						End Site
						{
							OFFSET 0.000000 18.199631 0.000000
						}
					}
				}
			}
		}
		JOINT newVegas:Belly
		{
			OFFSET 0.000000 -6.540398 9.014299
			CHANNELS 3 Xrotation Yrotation Zrotation
			End Site
			{
				OFFSET 0.000000 11.566666 0.000000
			}
		}
	}
	JOINT newVegas:ElvisFacialAnim_Joint
	{
		OFFSET 1.000000 -95.330101 -8.825800
		CHANNELS 3 Xrotation Yrotation Zrotation
		End Site
		{
			OFFSET 0.000000 35.315800 0.000000
		}
	}
}
MOTION
Frames: 4
Frame Time: 0.033333
-1.144520 70.993523 2.014526 34.701186 -29.754155 21.792980 0.000001 -0.000001 -0.000000 -103.339246 -9.510449 16.322591 96.219648 14.678239 -1.100369 -6.610759 0.686274 -5.524307 0.000000 -0.000000 -0.000001 0.000001 0.000000 0.000000 -83.599343 -0.846788 0.694020 93.668149 -6.750556 5.192311 -40.386758 -2.165572 -0.928393 0.000000 -0.000001 -0.000000 0.000001 -0.000001 0.000001 18.687377 -7.080362 -8.778902 2.995778 3.554767 0.096678 4.113659 3.093165 -0.876950 -0.011598 2.663609 -4.620574 -0.011640 2.663617 -4.620583 -0.000004 -0.000000 0.000001 -0.011579 2.663601 -4.620582 -0.011576 2.663616 -4.620585 -0.000002 0.000000 -0.000000 -0.000004 -0.000000 -0.000000 21.585679 -4.058363 8.978203 -104.442062 1.869744 -13.560926 -14.220872 -58.532426 -7.229811 -47.252178 -0.238032 14.675754 17.551582 -5.699202 -12.932251 10.850516 26.127775 8.644751 -0.000001 0.000001 -0.000003 13.980907 1.201518 -55.004360 0.370778 1.161635 -65.441873 0.000001 -0.000000 0.000002 7.504734 1.174440 -63.778524 1.807785 1.475732 -64.568046 0.000001 -0.000000 -0.000000 8.574310 2.179094 -75.148986 -0.207700 1.009301 -57.855001 -0.000001 -0.000001 0.000004 10.030122 13.637120 -84.750230 0.877195 0.062202 -64.595551 0.000000 -0.000003 0.000001 0.000001 -0.000000 0.000001 0.000001 -0.000000 0.000001 0.000000 -0.000000 0.000001 0.000001 -0.000003 -0.000002 0.000001 -0.000004 -0.000001 0.000001 -0.000003 -0.000002 -0.000000 -0.000004 -0.000003 20.201862 22.894447 17.314784 -24.757831 -13.322847 36.655395 -18.353915 25.236369 7.952441 0.742997 1.709395 -12.247944 0.006304 -0.000045 0.010596 5.020969 -12.299869 -2.522143 0.000000 0.000001 -0.000000 3.137708 -0.844201 17.458597 0.001074 -0.008393 17.774457 -0.000002 -0.000001 -0.000000 -4.180917 -6.779785 19.340973 -0.006075 0.003688 15.990431 -0.000001 0.000001 0.000000 -2.569664 -11.518917 20.380139 -0.002702 -0.007415 17.365192 0.000002 0.000001 -0.000000 -5.989185 -13.046948 20.098697 0.001921 -0.010275 23.114682 0.000003 0.000003 0.000001 0.000003 -0.000000 -0.000003 0.000003 -0.000001 -0.000001 0.000003 -0.000001 -0.000003 -0.000000 -0.000001 -0.000001 -0.000000 0.000000 -0.000001 -0.000000 -0.000001 -0.000001 -0.000000 -0.000000 -0.000000 0.000002 0.000000 -0.000001 0.000002 0.000000 -0.000001 0.000002 0.000000 -0.000001 0.000002 0.000000 -0.000001 0.000002 0.000000 -0.000001 0.000002 0.000000 -0.000001 0.000002 0.000000 -0.000001 -0.000000 0.000000 -0.000001 0.000001 -0.000001 -0.000000 
-6.077646 70.418083 3.008549 34.967464 -31.296770 22.352451 -0.000000 0.000001 -0.000001 -111.146671 -6.630319 11.168859 94.174655 7.909408 -2.135638 -5.032091 1.355931 -8.173214 -0.000000 0.000002 -0.000000 0.000000 -0.000000 0.000001 -77.995815 -5.475047 2.969431 93.596398 -6.729397 5.165947 -46.002943 0.786844 -4.686384 0.000000 -0.000000 -0.000000 0.000001 0.000001 -0.000003 17.582309 -6.619543 -9.103139 3.495487 4.237695 -0.585256 4.578941 3.687143 -1.640917 -0.024056 2.659003 -4.322011 -0.024081 2.659001 -4.322008 -0.000002 -0.000000 0.000001 -0.024062 2.658984 -4.322009 -0.023978 2.659034 -4.322023 0.000004 0.000000 -0.000000 -0.000002 -0.000000 0.000001 21.505045 -3.722907 8.973892 -103.773830 1.743358 -13.195251 -14.277974 -59.288999 -7.823294 -47.173002 -0.631047 14.951337 17.551576 -5.699200 -12.932253 10.850509 26.127777 8.644747 -0.000002 -0.000000 -0.000003 13.980905 1.201516 -55.004360 0.370782 1.161637 -65.441873 0.000001 0.000000 -0.000000 7.504735 1.174438 -63.778524 1.807784 1.475732 -64.568046 -0.000001 -0.000000 -0.000000 8.574310 2.179096 -75.148986 -0.207696 1.009299 -57.855008 0.000002 0.000001 -0.000003 10.030124 13.637120 -84.750230 0.877194 0.062208 -64.595551 0.000001 -0.000002 0.000001 -0.000000 0.000001 -0.000002 -0.000000 0.000001 -0.000002 -0.000001 0.000001 -0.000002 -0.000003 0.000001 -0.000000 -0.000003 0.000000 0.000000 -0.000003 0.000001 -0.000000 -0.000003 0.000001 -0.000001 20.641081 23.812539 17.132133 -26.722144 -13.795144 35.934889 -18.944800 25.550799 8.397506 -0.575965 1.413513 -11.574132 0.350177 -0.798644 -0.187484 4.710711 -11.505364 -2.389984 0.000002 -0.000004 -0.000001 3.138469 -0.843828 16.929353 0.001736 -0.008036 17.030928 -0.000003 -0.000000 0.000000 -4.183567 -6.773771 18.969252 -0.003973 0.002837 16.064747 -0.000002 0.000000 0.000000 -2.568584 -11.509367 19.940893 0.001253 -0.007020 16.442620 0.000000 0.000001 -0.000000 -6.640127 -14.441901 20.534470 0.001628 -0.009570 21.452926 0.000001 0.000002 -0.000002 0.000003 0.000000 -0.000000 0.000000 -0.000000 0.000001 0.000003 0.000000 -0.000000 0.000001 0.000000 0.000001 0.000001 0.000001 0.000001 0.000001 0.000000 0.000001 0.000001 0.000001 0.000001 -0.000002 -0.000001 -0.000000 -0.000002 -0.000001 -0.000000 -0.000002 -0.000001 -0.000000 -0.000002 -0.000001 -0.000000 -0.000002 -0.000001 -0.000000 -0.000002 -0.000001 -0.000000 -0.000002 -0.000001 -0.000000 0.000001 -0.000001 0.000001 -0.000000 0.000001 -0.000001 
-11.019541 69.665756 4.103527 35.337927 -33.044564 22.980026 -0.000000 -0.000002 0.000001 -115.695946 -2.938122 8.098505 87.818133 3.822768 -4.077726 -0.132592 1.050029 -11.961008 -0.000000 -0.000001 -0.000001 -0.000000 0.000000 0.000000 -71.338969 -9.332544 5.624885 92.708036 -6.677397 5.178972 -51.235513 4.111151 -7.815452 0.000000 -0.000001 -0.000000 -0.000002 -0.000005 0.000005 16.494617 -6.010465 -9.460469 4.034599 4.949751 -1.317182 5.084025 4.302900 -2.458676 -0.028312 2.649583 -3.958286 -0.028295 2.649577 -3.958273 -0.000001 -0.000000 -0.000000 -0.028253 2.649573 -3.958282 -0.028359 2.649598 -3.958282 -0.000004 -0.000000 0.000000 -0.000001 -0.000000 0.000001 21.521463 -3.404360 9.015180 -103.158246 1.596193 -12.769484 -14.371352 -60.090433 -8.470165 -47.088181 -1.039073 15.202213 17.551576 -5.699197 -12.932252 10.850505 26.127777 8.644753 -0.000004 0.000002 -0.000001 13.980909 1.201517 -55.004360 0.370781 1.161635 -65.441880 -0.000000 0.000003 -0.000000 7.504733 1.174437 -63.778524 1.807785 1.475731 -64.568046 -0.000000 0.000001 0.000002 8.574311 2.179096 -75.148992 -0.207699 1.009299 -57.855008 0.000000 -0.000002 0.000001 10.030124 13.637123 -84.750230 0.877193 0.062209 -64.595551 0.000001 -0.000003 -0.000002 0.000003 -0.000001 0.000000 0.000003 -0.000001 0.000000 0.000002 -0.000001 0.000000 -0.000002 0.000001 -0.000000 -0.000002 0.000000 0.000000 -0.000002 0.000001 -0.000000 -0.000002 0.000001 -0.000001 20.842141 25.189499 17.037926 -28.200548 -14.373783 35.405255 -19.557145 26.012320 8.969113 -2.002405 0.777897 -10.755193 0.705747 -1.631168 -0.387696 4.360938 -10.612826 -2.236196 0.000000 -0.000001 0.000001 3.136617 -0.844137 16.320450 0.002710 -0.007591 16.197444 -0.000003 0.000003 0.000001 -4.186029 -6.767268 18.525123 -0.003301 0.002593 16.087843 -0.000002 -0.000001 0.000000 -2.567198 -11.497957 19.414794 0.001133 -0.006571 15.411623 0.000002 0.000001 0.000001 -7.308395 -15.957088 20.887181 0.001335 -0.008765 19.595787 -0.000004 -0.000000 -0.000000 0.000001 0.000001 -0.000000 -0.000000 -0.000001 0.000000 0.000001 0.000001 -0.000000 -0.000000 0.000001 0.000001 -0.000000 0.000002 0.000002 -0.000000 0.000001 0.000001 -0.000000 0.000002 0.000001 -0.000004 0.000002 -0.000003 -0.000004 0.000002 -0.000003 -0.000004 0.000002 -0.000003 -0.000004 0.000002 -0.000003 -0.000004 0.000002 -0.000003 -0.000004 0.000002 -0.000003 -0.000004 0.000002 -0.000003 -0.000000 -0.000001 0.000002 -0.000000 -0.000002 0.000001 
-16.000729 68.890785 5.185444 35.763007 -34.825208 23.752123 -0.000000 -0.000001 0.000001 -116.018194 1.095883 7.339150 79.695795 5.147077 -7.557603 5.836584 -0.414686 -13.765408 -0.000000 -0.000001 -0.000001 -0.000001 -0.000001 -0.000001 -63.685428 -12.395847 8.363819 90.692099 -6.068585 5.272821 -55.797902 7.668048 -10.794158 -0.000000 0.000001 -0.000000 0.000002 -0.000003 0.000001 15.401860 -5.395579 -9.924154 4.592480 5.660550 -2.052388 5.607603 4.917087 -3.279412 -0.031057 2.637932 -3.579680 -0.031079 2.637933 -3.579684 0.000001 -0.000001 0.000001 -0.030976 2.637938 -3.579685 -0.031012 2.637915 -3.579677 -0.000001 0.000000 0.000001 0.000001 -0.000001 0.000001 21.539123 -3.086170 9.057436 -102.542532 1.457793 -12.340832 -14.472860 -60.895194 -9.123490 -47.000523 -1.446676 15.453645 17.551576 -5.699199 -12.932251 10.850504 26.127775 8.644755 -0.000002 -0.000000 -0.000003 13.980906 1.201515 -55.004357 0.370781 1.161634 -65.441873 0.000001 0.000001 0.000002 7.504734 1.174439 -63.778531 1.807785 1.475731 -64.568046 -0.000002 -0.000000 0.000001 8.574310 2.179095 -75.148986 -0.207697 1.009299 -57.855008 0.000001 -0.000001 0.000006 10.030119 13.637124 -84.750230 0.877192 0.062210 -64.595544 -0.000000 -0.000003 0.000000 0.000000 -0.000001 0.000001 0.000000 -0.000001 0.000001 -0.000000 -0.000001 0.000001 0.000001 -0.000002 -0.000002 0.000001 -0.000003 -0.000001 0.000001 -0.000002 -0.000002 0.000001 -0.000003 -0.000001 20.584670 26.295199 16.209694 -28.658910 -14.879933 35.846827 -18.522184 27.464437 9.065322 -3.459559 -0.061926 -9.898338 1.033032 -2.403208 -0.567697 4.083304 -9.907109 -2.110541 -0.000001 -0.000000 -0.000001 3.134439 -0.843963 15.861624 0.003670 -0.007267 15.533419 0.000001 -0.000001 -0.000000 -4.186308 -6.764405 18.217757 0.000101 0.001277 16.207431 0.000000 -0.000002 -0.000001 -2.566240 -11.492858 19.052406 0.002790 -0.006196 14.585147 0.000000 0.000001 -0.000001 -7.877465 -17.276004 21.295111 0.001112 -0.008126 18.107139 0.000001 0.000002 -0.000001 -0.000001 0.000000 -0.000000 -0.000001 0.000000 0.000001 -0.000001 0.000000 -0.000000 -0.000000 -0.000001 -0.000001 -0.000000 0.000000 -0.000000 -0.000000 -0.000001 -0.000001 -0.000000 -0.000000 -0.000001 -0.000003 0.000000 -0.000002 -0.000003 0.000000 -0.000002 -0.000003 0.000000 -0.000002 -0.000003 0.000000 -0.000002 -0.000003 0.000000 -0.000002 -0.000003 0.000000 -0.000002 -0.000003 0.000000 -0.000002 -0.000001 0.000002 -0.000001 -0.000000 -0.000001 0.000001 
